<mxfile host="drawio-plugin" modified="2023-09-17T18:48:57.965Z" agent="5.0 (Windows NT 10.0; Win64; x64) AppleWebKit/537.36 (KHTML, like Gecko) Chrome/111.0.0.0 Safari/537.36" etag="_eRLnxnICKze-yU2k0N0" version="20.5.3" type="embed"><diagram name="Page-1" id="Ufjjq2OLxz8ACgoOWgOk"><mxGraphModel dx="704" dy="533" grid="0" gridSize="7" guides="1" tooltips="1" connect="1" arrows="1" fold="1" page="0" pageScale="1" pageWidth="850" pageHeight="1100" math="0" shadow="0"><root><mxCell id="0"/><mxCell id="1" parent="0"/><mxCell id="pcjQf0hpLrdscn9EhXyY-1" value="&lt;font style=&quot;font-size: 14px;&quot;&gt;User&lt;/font&gt;" style="shape=table;startSize=30;container=1;collapsible=1;childLayout=tableLayout;fixedRows=1;rowLines=0;fontStyle=1;align=center;resizeLast=1;html=1;rounded=0;" parent="1" vertex="1"><mxGeometry x="119" y="300" width="160" height="180" as="geometry"/></mxCell><mxCell id="pcjQf0hpLrdscn9EhXyY-51" value="" style="shape=tableRow;horizontal=0;startSize=0;swimlaneHead=0;swimlaneBody=0;fillColor=none;collapsible=0;dropTarget=0;points=[[0,0.5],[1,0.5]];portConstraint=eastwest;top=0;left=0;right=0;bottom=1;rounded=0;" parent="pcjQf0hpLrdscn9EhXyY-1" vertex="1"><mxGeometry y="30" width="160" height="30" as="geometry"/></mxCell><mxCell id="pcjQf0hpLrdscn9EhXyY-52" value="PK" style="shape=partialRectangle;connectable=0;fillColor=none;top=0;left=0;bottom=0;right=0;fontStyle=1;overflow=hidden;whiteSpace=wrap;html=1;rounded=0;" parent="pcjQf0hpLrdscn9EhXyY-51" vertex="1"><mxGeometry width="40" height="30" as="geometry"><mxRectangle width="40" height="30" as="alternateBounds"/></mxGeometry></mxCell><mxCell id="pcjQf0hpLrdscn9EhXyY-53" value="Id" style="shape=partialRectangle;connectable=0;fillColor=none;top=0;left=0;bottom=0;right=0;align=left;spacingLeft=6;fontStyle=5;overflow=hidden;whiteSpace=wrap;html=1;rounded=0;" parent="pcjQf0hpLrdscn9EhXyY-51" vertex="1"><mxGeometry x="40" width="120" height="30" as="geometry"><mxRectangle width="120" height="30" as="alternateBounds"/></mxGeometry></mxCell><mxCell id="pcjQf0hpLrdscn9EhXyY-5" value="" style="shape=tableRow;horizontal=0;startSize=0;swimlaneHead=0;swimlaneBody=0;fillColor=none;collapsible=0;dropTarget=0;points=[[0,0.5],[1,0.5]];portConstraint=eastwest;top=0;left=0;right=0;bottom=0;rounded=0;" parent="pcjQf0hpLrdscn9EhXyY-1" vertex="1"><mxGeometry y="60" width="160" height="30" as="geometry"/></mxCell><mxCell id="pcjQf0hpLrdscn9EhXyY-6" value="" style="shape=partialRectangle;connectable=0;fillColor=none;top=0;left=0;bottom=0;right=0;editable=1;overflow=hidden;whiteSpace=wrap;html=1;rounded=0;" parent="pcjQf0hpLrdscn9EhXyY-5" vertex="1"><mxGeometry width="40" height="30" as="geometry"><mxRectangle width="40" height="30" as="alternateBounds"/></mxGeometry></mxCell><mxCell id="pcjQf0hpLrdscn9EhXyY-7" value="first_name" style="shape=partialRectangle;connectable=0;fillColor=none;top=0;left=0;bottom=0;right=0;align=left;spacingLeft=6;overflow=hidden;whiteSpace=wrap;html=1;rounded=0;" parent="pcjQf0hpLrdscn9EhXyY-5" vertex="1"><mxGeometry x="40" width="120" height="30" as="geometry"><mxRectangle width="120" height="30" as="alternateBounds"/></mxGeometry></mxCell><mxCell id="pcjQf0hpLrdscn9EhXyY-8" value="" style="shape=tableRow;horizontal=0;startSize=0;swimlaneHead=0;swimlaneBody=0;fillColor=none;collapsible=0;dropTarget=0;points=[[0,0.5],[1,0.5]];portConstraint=eastwest;top=0;left=0;right=0;bottom=0;rounded=0;" parent="pcjQf0hpLrdscn9EhXyY-1" vertex="1"><mxGeometry y="90" width="160" height="30" as="geometry"/></mxCell><mxCell id="pcjQf0hpLrdscn9EhXyY-9" value="" style="shape=partialRectangle;connectable=0;fillColor=none;top=0;left=0;bottom=0;right=0;editable=1;overflow=hidden;whiteSpace=wrap;html=1;rounded=0;" parent="pcjQf0hpLrdscn9EhXyY-8" vertex="1"><mxGeometry width="40" height="30" as="geometry"><mxRectangle width="40" height="30" as="alternateBounds"/></mxGeometry></mxCell><mxCell id="pcjQf0hpLrdscn9EhXyY-10" value="last_name" style="shape=partialRectangle;connectable=0;fillColor=none;top=0;left=0;bottom=0;right=0;align=left;spacingLeft=6;overflow=hidden;whiteSpace=wrap;html=1;rounded=0;" parent="pcjQf0hpLrdscn9EhXyY-8" vertex="1"><mxGeometry x="40" width="120" height="30" as="geometry"><mxRectangle width="120" height="30" as="alternateBounds"/></mxGeometry></mxCell><mxCell id="pcjQf0hpLrdscn9EhXyY-11" value="" style="shape=tableRow;horizontal=0;startSize=0;swimlaneHead=0;swimlaneBody=0;fillColor=none;collapsible=0;dropTarget=0;points=[[0,0.5],[1,0.5]];portConstraint=eastwest;top=0;left=0;right=0;bottom=0;rounded=0;" parent="pcjQf0hpLrdscn9EhXyY-1" vertex="1"><mxGeometry y="120" width="160" height="30" as="geometry"/></mxCell><mxCell id="pcjQf0hpLrdscn9EhXyY-12" value="" style="shape=partialRectangle;connectable=0;fillColor=none;top=0;left=0;bottom=0;right=0;editable=1;overflow=hidden;whiteSpace=wrap;html=1;rounded=0;" parent="pcjQf0hpLrdscn9EhXyY-11" vertex="1"><mxGeometry width="40" height="30" as="geometry"><mxRectangle width="40" height="30" as="alternateBounds"/></mxGeometry></mxCell><mxCell id="pcjQf0hpLrdscn9EhXyY-13" value="email" style="shape=partialRectangle;connectable=0;fillColor=none;top=0;left=0;bottom=0;right=0;align=left;spacingLeft=6;overflow=hidden;whiteSpace=wrap;html=1;rounded=0;" parent="pcjQf0hpLrdscn9EhXyY-11" vertex="1"><mxGeometry x="40" width="120" height="30" as="geometry"><mxRectangle width="120" height="30" as="alternateBounds"/></mxGeometry></mxCell><mxCell id="pcjQf0hpLrdscn9EhXyY-16" value="" style="shape=tableRow;horizontal=0;startSize=0;swimlaneHead=0;swimlaneBody=0;fillColor=none;collapsible=0;dropTarget=0;points=[[0,0.5],[1,0.5]];portConstraint=eastwest;top=0;left=0;right=0;bottom=0;rounded=0;" parent="pcjQf0hpLrdscn9EhXyY-1" vertex="1"><mxGeometry y="150" width="160" height="30" as="geometry"/></mxCell><mxCell id="pcjQf0hpLrdscn9EhXyY-17" value="" style="shape=partialRectangle;connectable=0;fillColor=none;top=0;left=0;bottom=0;right=0;editable=1;overflow=hidden;whiteSpace=wrap;html=1;rounded=0;" parent="pcjQf0hpLrdscn9EhXyY-16" vertex="1"><mxGeometry width="40" height="30" as="geometry"><mxRectangle width="40" height="30" as="alternateBounds"/></mxGeometry></mxCell><mxCell id="pcjQf0hpLrdscn9EhXyY-18" value="password" style="shape=partialRectangle;connectable=0;fillColor=none;top=0;left=0;bottom=0;right=0;align=left;spacingLeft=6;overflow=hidden;whiteSpace=wrap;html=1;rounded=0;" parent="pcjQf0hpLrdscn9EhXyY-16" vertex="1"><mxGeometry x="40" width="120" height="30" as="geometry"><mxRectangle width="120" height="30" as="alternateBounds"/></mxGeometry></mxCell><mxCell id="NF3zwTunUdXDjmWf9Qlu-40" value="Chat" style="shape=table;startSize=30;container=1;collapsible=1;childLayout=tableLayout;fixedRows=1;rowLines=0;fontStyle=1;align=center;resizeLast=1;html=1;rounded=0;" parent="1" vertex="1"><mxGeometry x="642" y="309" width="160" height="90" as="geometry"/></mxCell><mxCell id="NF3zwTunUdXDjmWf9Qlu-41" value="" style="shape=tableRow;horizontal=0;startSize=0;swimlaneHead=0;swimlaneBody=0;fillColor=none;collapsible=0;dropTarget=0;points=[[0,0.5],[1,0.5]];portConstraint=eastwest;top=0;left=0;right=0;bottom=1;rounded=0;" parent="NF3zwTunUdXDjmWf9Qlu-40" vertex="1"><mxGeometry y="30" width="160" height="30" as="geometry"/></mxCell><mxCell id="NF3zwTunUdXDjmWf9Qlu-42" value="PK" style="shape=partialRectangle;connectable=0;fillColor=none;top=0;left=0;bottom=0;right=0;fontStyle=1;overflow=hidden;whiteSpace=wrap;html=1;rounded=0;" parent="NF3zwTunUdXDjmWf9Qlu-41" vertex="1"><mxGeometry width="30" height="30" as="geometry"><mxRectangle width="30" height="30" as="alternateBounds"/></mxGeometry></mxCell><mxCell id="NF3zwTunUdXDjmWf9Qlu-43" value="id" style="shape=partialRectangle;connectable=0;fillColor=none;top=0;left=0;bottom=0;right=0;align=left;spacingLeft=6;fontStyle=5;overflow=hidden;whiteSpace=wrap;html=1;rounded=0;" parent="NF3zwTunUdXDjmWf9Qlu-41" vertex="1"><mxGeometry x="30" width="130" height="30" as="geometry"><mxRectangle width="130" height="30" as="alternateBounds"/></mxGeometry></mxCell><mxCell id="NF3zwTunUdXDjmWf9Qlu-44" value="" style="shape=tableRow;horizontal=0;startSize=0;swimlaneHead=0;swimlaneBody=0;fillColor=none;collapsible=0;dropTarget=0;points=[[0,0.5],[1,0.5]];portConstraint=eastwest;top=0;left=0;right=0;bottom=0;rounded=0;" parent="NF3zwTunUdXDjmWf9Qlu-40" vertex="1"><mxGeometry y="60" width="160" height="30" as="geometry"/></mxCell><mxCell id="NF3zwTunUdXDjmWf9Qlu-45" value="" style="shape=partialRectangle;connectable=0;fillColor=none;top=0;left=0;bottom=0;right=0;editable=1;overflow=hidden;whiteSpace=wrap;html=1;rounded=0;" parent="NF3zwTunUdXDjmWf9Qlu-44" vertex="1"><mxGeometry width="30" height="30" as="geometry"><mxRectangle width="30" height="30" as="alternateBounds"/></mxGeometry></mxCell><mxCell id="NF3zwTunUdXDjmWf9Qlu-46" value="created_at" style="shape=partialRectangle;connectable=0;fillColor=none;top=0;left=0;bottom=0;right=0;align=left;spacingLeft=6;overflow=hidden;whiteSpace=wrap;html=1;rounded=0;" parent="NF3zwTunUdXDjmWf9Qlu-44" vertex="1"><mxGeometry x="30" width="130" height="30" as="geometry"><mxRectangle width="130" height="30" as="alternateBounds"/></mxGeometry></mxCell><mxCell id="NF3zwTunUdXDjmWf9Qlu-56" value="" style="edgeStyle=entityRelationEdgeStyle;fontSize=12;html=1;endArrow=ERoneToMany;endFill=0;startArrow=ERmandOne;rounded=0;startSize=10;endSize=10;startFill=0;exitX=1;exitY=0.667;exitDx=0;exitDy=0;exitPerimeter=0;entryX=0;entryY=0.5;entryDx=0;entryDy=0;" parent="1" source="pcjQf0hpLrdscn9EhXyY-51" target="eS5WMjh4lA8IgczhJTEf-31" edge="1"><mxGeometry width="100" height="100" relative="1" as="geometry"><mxPoint x="245" y="345" as="sourcePoint"/><mxPoint x="368" y="363" as="targetPoint"/><Array as="points"><mxPoint x="165" y="650"/><mxPoint x="225" y="560"/></Array></mxGeometry></mxCell><mxCell id="NF3zwTunUdXDjmWf9Qlu-57" value="" style="edgeStyle=entityRelationEdgeStyle;fontSize=12;html=1;endArrow=ERmandOne;endFill=0;startArrow=ERzeroToMany;rounded=0;startSize=10;endSize=10;startFill=0;entryX=-0.004;entryY=0.404;entryDx=0;entryDy=0;entryPerimeter=0;exitX=1;exitY=0.5;exitDx=0;exitDy=0;" parent="1" source="eS5WMjh4lA8IgczhJTEf-28" target="NF3zwTunUdXDjmWf9Qlu-41" edge="1"><mxGeometry width="100" height="100" relative="1" as="geometry"><mxPoint x="544.636" y="364.9519999999999" as="sourcePoint"/><mxPoint x="645" y="450" as="targetPoint"/><Array as="points"><mxPoint x="475" y="755"/><mxPoint x="535" y="665"/></Array></mxGeometry></mxCell><mxCell id="NF3zwTunUdXDjmWf9Qlu-92" value="&lt;font style=&quot;font-size: 14px;&quot;&gt;Message&lt;/font&gt;" style="shape=table;startSize=30;container=1;collapsible=1;childLayout=tableLayout;fixedRows=1;rowLines=0;fontStyle=1;align=center;resizeLast=1;html=1;rounded=0;" parent="1" vertex="1"><mxGeometry x="366.5" y="485" width="175" height="210" as="geometry"/></mxCell><mxCell id="NF3zwTunUdXDjmWf9Qlu-93" value="" style="shape=tableRow;horizontal=0;startSize=0;swimlaneHead=0;swimlaneBody=0;fillColor=none;collapsible=0;dropTarget=0;points=[[0,0.5],[1,0.5]];portConstraint=eastwest;top=0;left=0;right=0;bottom=1;rounded=0;" parent="NF3zwTunUdXDjmWf9Qlu-92" vertex="1"><mxGeometry y="30" width="175" height="30" as="geometry"/></mxCell><mxCell id="NF3zwTunUdXDjmWf9Qlu-94" value="PK" style="shape=partialRectangle;connectable=0;fillColor=none;top=0;left=0;bottom=0;right=0;fontStyle=1;overflow=hidden;whiteSpace=wrap;html=1;rounded=0;" parent="NF3zwTunUdXDjmWf9Qlu-93" vertex="1"><mxGeometry width="40" height="30" as="geometry"><mxRectangle width="40" height="30" as="alternateBounds"/></mxGeometry></mxCell><mxCell id="NF3zwTunUdXDjmWf9Qlu-95" value="Id" style="shape=partialRectangle;connectable=0;fillColor=none;top=0;left=0;bottom=0;right=0;align=left;spacingLeft=6;fontStyle=5;overflow=hidden;whiteSpace=wrap;html=1;rounded=0;" parent="NF3zwTunUdXDjmWf9Qlu-93" vertex="1"><mxGeometry x="40" width="135" height="30" as="geometry"><mxRectangle width="135" height="30" as="alternateBounds"/></mxGeometry></mxCell><mxCell id="NF3zwTunUdXDjmWf9Qlu-96" value="" style="shape=tableRow;horizontal=0;startSize=0;swimlaneHead=0;swimlaneBody=0;fillColor=none;collapsible=0;dropTarget=0;points=[[0,0.5],[1,0.5]];portConstraint=eastwest;top=0;left=0;right=0;bottom=0;rounded=0;" parent="NF3zwTunUdXDjmWf9Qlu-92" vertex="1"><mxGeometry y="60" width="175" height="30" as="geometry"/></mxCell><mxCell id="NF3zwTunUdXDjmWf9Qlu-97" value="&lt;b&gt;FK&lt;/b&gt;" style="shape=partialRectangle;connectable=0;fillColor=none;top=0;left=0;bottom=0;right=0;editable=1;overflow=hidden;whiteSpace=wrap;html=1;rounded=0;" parent="NF3zwTunUdXDjmWf9Qlu-96" vertex="1"><mxGeometry width="40" height="30" as="geometry"><mxRectangle width="40" height="30" as="alternateBounds"/></mxGeometry></mxCell><mxCell id="NF3zwTunUdXDjmWf9Qlu-98" value="&lt;u&gt;&lt;b&gt;user_id&lt;/b&gt;&lt;/u&gt;" style="shape=partialRectangle;connectable=0;fillColor=none;top=0;left=0;bottom=0;right=0;align=left;spacingLeft=6;overflow=hidden;whiteSpace=wrap;html=1;rounded=0;" parent="NF3zwTunUdXDjmWf9Qlu-96" vertex="1"><mxGeometry x="40" width="135" height="30" as="geometry"><mxRectangle width="135" height="30" as="alternateBounds"/></mxGeometry></mxCell><mxCell id="NF3zwTunUdXDjmWf9Qlu-111" value="" style="shape=tableRow;horizontal=0;startSize=0;swimlaneHead=0;swimlaneBody=0;fillColor=none;collapsible=0;dropTarget=0;points=[[0,0.5],[1,0.5]];portConstraint=eastwest;top=0;left=0;right=0;bottom=0;rounded=0;" parent="NF3zwTunUdXDjmWf9Qlu-92" vertex="1"><mxGeometry y="90" width="175" height="30" as="geometry"/></mxCell><mxCell id="NF3zwTunUdXDjmWf9Qlu-112" value="&lt;b&gt;FK&lt;/b&gt;" style="shape=partialRectangle;connectable=0;fillColor=none;top=0;left=0;bottom=0;right=0;editable=1;overflow=hidden;whiteSpace=wrap;html=1;rounded=0;" parent="NF3zwTunUdXDjmWf9Qlu-111" vertex="1"><mxGeometry width="40" height="30" as="geometry"><mxRectangle width="40" height="30" as="alternateBounds"/></mxGeometry></mxCell><mxCell id="NF3zwTunUdXDjmWf9Qlu-113" value="&lt;u&gt;&lt;b&gt;chat_id&lt;/b&gt;&lt;/u&gt;" style="shape=partialRectangle;connectable=0;fillColor=none;top=0;left=0;bottom=0;right=0;align=left;spacingLeft=6;overflow=hidden;whiteSpace=wrap;html=1;rounded=0;" parent="NF3zwTunUdXDjmWf9Qlu-111" vertex="1"><mxGeometry x="40" width="135" height="30" as="geometry"><mxRectangle width="135" height="30" as="alternateBounds"/></mxGeometry></mxCell><mxCell id="NF3zwTunUdXDjmWf9Qlu-108" value="" style="shape=tableRow;horizontal=0;startSize=0;swimlaneHead=0;swimlaneBody=0;fillColor=none;collapsible=0;dropTarget=0;points=[[0,0.5],[1,0.5]];portConstraint=eastwest;top=0;left=0;right=0;bottom=0;rounded=0;" parent="NF3zwTunUdXDjmWf9Qlu-92" vertex="1"><mxGeometry y="120" width="175" height="30" as="geometry"/></mxCell><mxCell id="NF3zwTunUdXDjmWf9Qlu-109" value="" style="shape=partialRectangle;connectable=0;fillColor=none;top=0;left=0;bottom=0;right=0;editable=1;overflow=hidden;whiteSpace=wrap;html=1;rounded=0;" parent="NF3zwTunUdXDjmWf9Qlu-108" vertex="1"><mxGeometry width="40" height="30" as="geometry"><mxRectangle width="40" height="30" as="alternateBounds"/></mxGeometry></mxCell><mxCell id="NF3zwTunUdXDjmWf9Qlu-110" value="content" style="shape=partialRectangle;connectable=0;fillColor=none;top=0;left=0;bottom=0;right=0;align=left;spacingLeft=6;overflow=hidden;whiteSpace=wrap;html=1;rounded=0;" parent="NF3zwTunUdXDjmWf9Qlu-108" vertex="1"><mxGeometry x="40" width="135" height="30" as="geometry"><mxRectangle width="135" height="30" as="alternateBounds"/></mxGeometry></mxCell><mxCell id="NF3zwTunUdXDjmWf9Qlu-99" value="" style="shape=tableRow;horizontal=0;startSize=0;swimlaneHead=0;swimlaneBody=0;fillColor=none;collapsible=0;dropTarget=0;points=[[0,0.5],[1,0.5]];portConstraint=eastwest;top=0;left=0;right=0;bottom=0;rounded=0;" parent="NF3zwTunUdXDjmWf9Qlu-92" vertex="1"><mxGeometry y="150" width="175" height="30" as="geometry"/></mxCell><mxCell id="NF3zwTunUdXDjmWf9Qlu-100" value="" style="shape=partialRectangle;connectable=0;fillColor=none;top=0;left=0;bottom=0;right=0;editable=1;overflow=hidden;whiteSpace=wrap;html=1;rounded=0;" parent="NF3zwTunUdXDjmWf9Qlu-99" vertex="1"><mxGeometry width="40" height="30" as="geometry"><mxRectangle width="40" height="30" as="alternateBounds"/></mxGeometry></mxCell><mxCell id="NF3zwTunUdXDjmWf9Qlu-101" value="created_at" style="shape=partialRectangle;connectable=0;fillColor=none;top=0;left=0;bottom=0;right=0;align=left;spacingLeft=6;overflow=hidden;whiteSpace=wrap;html=1;rounded=0;" parent="NF3zwTunUdXDjmWf9Qlu-99" vertex="1"><mxGeometry x="40" width="135" height="30" as="geometry"><mxRectangle width="135" height="30" as="alternateBounds"/></mxGeometry></mxCell><mxCell id="NF3zwTunUdXDjmWf9Qlu-102" value="" style="shape=tableRow;horizontal=0;startSize=0;swimlaneHead=0;swimlaneBody=0;fillColor=none;collapsible=0;dropTarget=0;points=[[0,0.5],[1,0.5]];portConstraint=eastwest;top=0;left=0;right=0;bottom=0;rounded=0;" parent="NF3zwTunUdXDjmWf9Qlu-92" vertex="1"><mxGeometry y="180" width="175" height="30" as="geometry"/></mxCell><mxCell id="NF3zwTunUdXDjmWf9Qlu-103" value="" style="shape=partialRectangle;connectable=0;fillColor=none;top=0;left=0;bottom=0;right=0;editable=1;overflow=hidden;whiteSpace=wrap;html=1;rounded=0;" parent="NF3zwTunUdXDjmWf9Qlu-102" vertex="1"><mxGeometry width="40" height="30" as="geometry"><mxRectangle width="40" height="30" as="alternateBounds"/></mxGeometry></mxCell><mxCell id="NF3zwTunUdXDjmWf9Qlu-104" value="status" style="shape=partialRectangle;connectable=0;fillColor=none;top=0;left=0;bottom=0;right=0;align=left;spacingLeft=6;overflow=hidden;whiteSpace=wrap;html=1;rounded=0;" parent="NF3zwTunUdXDjmWf9Qlu-102" vertex="1"><mxGeometry x="40" width="135" height="30" as="geometry"><mxRectangle width="135" height="30" as="alternateBounds"/></mxGeometry></mxCell><mxCell id="NF3zwTunUdXDjmWf9Qlu-116" value="" style="fontSize=12;html=1;endArrow=ERmandOne;startArrow=ERzeroToMany;rounded=0;entryX=0;entryY=0.5;entryDx=0;entryDy=0;endFill=0;startFill=0;exitX=0;exitY=0.5;exitDx=0;exitDy=0;endSize=10;startSize=10;edgeStyle=orthogonalEdgeStyle;" parent="1" source="NF3zwTunUdXDjmWf9Qlu-96" target="pcjQf0hpLrdscn9EhXyY-51" edge="1"><mxGeometry width="100" height="100" relative="1" as="geometry"><mxPoint x="390" y="555" as="sourcePoint"/><mxPoint x="139" y="345" as="targetPoint"/><Array as="points"><mxPoint x="85" y="560"/><mxPoint x="85" y="345"/></Array></mxGeometry></mxCell><mxCell id="NF3zwTunUdXDjmWf9Qlu-119" value="" style="fontSize=12;html=1;endArrow=ERmandOne;endFill=0;startArrow=ERzeroToMany;rounded=0;endSize=10;startSize=10;exitX=1;exitY=0.5;exitDx=0;exitDy=0;edgeStyle=orthogonalEdgeStyle;entryX=1;entryY=0.5;entryDx=0;entryDy=0;startFill=0;" parent="1" edge="1"><mxGeometry width="100" height="100" relative="1" as="geometry"><mxPoint x="541.5" y="589" as="sourcePoint"/><mxPoint x="802" y="353" as="targetPoint"/><Array as="points"><mxPoint x="833" y="589"/><mxPoint x="833" y="353"/></Array></mxGeometry></mxCell><mxCell id="eS5WMjh4lA8IgczhJTEf-24" value="User_Chat" style="shape=table;startSize=30;container=1;collapsible=1;childLayout=tableLayout;fixedRows=1;rowLines=0;fontStyle=1;align=center;resizeLast=1;html=1;" parent="1" vertex="1"><mxGeometry x="371" y="291" width="186.2" height="120" as="geometry"/></mxCell><mxCell id="eS5WMjh4lA8IgczhJTEf-28" value="" style="shape=tableRow;horizontal=0;startSize=0;swimlaneHead=0;swimlaneBody=0;fillColor=none;collapsible=0;dropTarget=0;points=[[0,0.5],[1,0.5]];portConstraint=eastwest;top=0;left=0;right=0;bottom=0;" parent="eS5WMjh4lA8IgczhJTEf-24" vertex="1"><mxGeometry y="30" width="186.2" height="30" as="geometry"/></mxCell><mxCell id="eS5WMjh4lA8IgczhJTEf-29" value="&lt;b&gt;PK, FK&lt;/b&gt;" style="shape=partialRectangle;connectable=0;fillColor=none;top=0;left=0;bottom=0;right=0;editable=1;overflow=hidden;whiteSpace=wrap;html=1;" parent="eS5WMjh4lA8IgczhJTEf-28" vertex="1"><mxGeometry width="51.40323368195567" height="30" as="geometry"><mxRectangle width="51.40323368195567" height="30" as="alternateBounds"/></mxGeometry></mxCell><mxCell id="eS5WMjh4lA8IgczhJTEf-30" value="&lt;b&gt;&lt;u&gt;chat_id&lt;/u&gt;&lt;/b&gt;" style="shape=partialRectangle;connectable=0;fillColor=none;top=0;left=0;bottom=0;right=0;align=left;spacingLeft=6;overflow=hidden;whiteSpace=wrap;html=1;" parent="eS5WMjh4lA8IgczhJTEf-28" vertex="1"><mxGeometry x="51.40323368195567" width="134.79676631804432" height="30" as="geometry"><mxRectangle width="134.79676631804432" height="30" as="alternateBounds"/></mxGeometry></mxCell><mxCell id="eS5WMjh4lA8IgczhJTEf-31" value="" style="shape=tableRow;horizontal=0;startSize=0;swimlaneHead=0;swimlaneBody=0;fillColor=none;collapsible=0;dropTarget=0;points=[[0,0.5],[1,0.5]];portConstraint=eastwest;top=0;left=0;right=0;bottom=0;" parent="eS5WMjh4lA8IgczhJTEf-24" vertex="1"><mxGeometry y="60" width="186.2" height="30" as="geometry"/></mxCell><mxCell id="eS5WMjh4lA8IgczhJTEf-32" value="&lt;b&gt;PK, FK&lt;/b&gt;" style="shape=partialRectangle;connectable=0;fillColor=none;top=0;left=0;bottom=0;right=0;editable=1;overflow=hidden;whiteSpace=wrap;html=1;" parent="eS5WMjh4lA8IgczhJTEf-31" vertex="1"><mxGeometry width="51.40323368195567" height="30" as="geometry"><mxRectangle width="51.40323368195567" height="30" as="alternateBounds"/></mxGeometry></mxCell><mxCell id="eS5WMjh4lA8IgczhJTEf-33" value="&lt;b&gt;&lt;u&gt;user1_id&lt;/u&gt;&lt;/b&gt;" style="shape=partialRectangle;connectable=0;fillColor=none;top=0;left=0;bottom=0;right=0;align=left;spacingLeft=6;overflow=hidden;whiteSpace=wrap;html=1;" parent="eS5WMjh4lA8IgczhJTEf-31" vertex="1"><mxGeometry x="51.40323368195567" width="134.79676631804432" height="30" as="geometry"><mxRectangle width="134.79676631804432" height="30" as="alternateBounds"/></mxGeometry></mxCell><mxCell id="eS5WMjh4lA8IgczhJTEf-34" value="" style="shape=tableRow;horizontal=0;startSize=0;swimlaneHead=0;swimlaneBody=0;fillColor=none;collapsible=0;dropTarget=0;points=[[0,0.5],[1,0.5]];portConstraint=eastwest;top=0;left=0;right=0;bottom=0;shadow=0;perimeterSpacing=1;" parent="eS5WMjh4lA8IgczhJTEf-24" vertex="1"><mxGeometry y="90" width="186.2" height="30" as="geometry"/></mxCell><mxCell id="eS5WMjh4lA8IgczhJTEf-35" value="" style="shape=partialRectangle;connectable=0;fillColor=none;top=0;left=0;bottom=0;right=0;editable=1;overflow=hidden;whiteSpace=wrap;html=1;" parent="eS5WMjh4lA8IgczhJTEf-34" vertex="1"><mxGeometry width="51.40323368195567" height="30" as="geometry"><mxRectangle width="51.40323368195567" height="30" as="alternateBounds"/></mxGeometry></mxCell><mxCell id="eS5WMjh4lA8IgczhJTEf-36" value="&lt;b&gt;&lt;u&gt;user2_id&lt;/u&gt;&lt;/b&gt;" style="shape=partialRectangle;connectable=0;fillColor=none;top=0;left=0;bottom=0;right=0;align=left;spacingLeft=6;overflow=hidden;whiteSpace=wrap;html=1;" parent="eS5WMjh4lA8IgczhJTEf-34" vertex="1"><mxGeometry x="51.40323368195567" width="134.79676631804432" height="30" as="geometry"><mxRectangle width="134.79676631804432" height="30" as="alternateBounds"/></mxGeometry></mxCell></root></mxGraphModel></diagram></mxfile>